<?xml version="1.0" encoding="UTF-8"?>
<!-- Created with Inkscape (http://www.inkscape.org/) -->
<svg width="265.85mm" height="46.588mm" version="1.1" viewBox="0 0 267.67 46.588" xmlns="http://www.w3.org/2000/svg">
 <g transform="translate(-12.791 -125.76)">
  <g stroke-width=".26458" aria-label="Paralelní">
   <path d="m15.812 140v27.295h5.4836v-9.6576h6.5066c5.4017 0 9.0438-3.6421 9.0438-9.0029 0-2.9873-1.1458-5.77-2.9873-7.1205-1.3095-0.94121-3.4784-1.5141-5.811-1.5141zm10.803 12.972h-5.238v-8.3072h5.3199c2.9055 0 4.3787 1.3504 4.3787 4.0104 0 2.7827-1.5141 4.2968-4.4605 4.2968z"/>
   <path d="m48.908 164.84 0.3683 2.4553h6.0565v-0.65476c-0.61383-0.45014-0.77752-0.7366-0.90029-1.2277-0.20461-0.69567-0.32738-1.4323-0.32738-2.128v-10.476c0-1.4732-0.24553-2.5781-0.7366-3.3556-1.2686-1.8006-3.8876-2.9055-7.2023-2.9055-3.5602 0-5.8928 0.7366-7.4888 2.3326-1.2686 1.2686-1.7187 2.4962-1.8415 4.6651h5.0744c0.16369-1.8824 1.4323-2.8236 3.7648-2.8236 1.9233 0 3.2329 1.064 3.1101 2.4144-0.04092 0.53199-0.32738 0.98214-0.90029 1.3095-0.65476 0.32737-1.1458 0.40922-3.4375 0.73659-3.1101 0.45015-4.9516 0.90029-5.9746 1.6778-1.4732 0.98214-2.3326 2.9055-2.3326 5.0744 0 3.7648 2.4553 6.0156 6.4248 6.0156 2.7418 0 5.0744-1.1867 6.3429-3.1101zm-0.20461-6.9977v1.4732c0 1.1458-0.16369 2.087-0.53199 2.7009-0.61383 1.1049-2.1689 1.9234-3.683 1.9234-1.9233 0-2.8646-0.81845-2.8646-2.4553 0-1.596 0.81844-2.2098 3.6012-2.8236 0.81844-0.16369 1.6369-0.3683 3.4784-0.81844z"/>
   <path d="m56.414 147v20.297h5.279v-10.517c0-1.9643 0.61383-3.2328 1.9643-4.0922 0.85937-0.65475 1.6778-0.7366 4.5014-0.94121v-5.4017c-3.683 0.20461-5.4427 1.3095-6.6294 3.8058l-0.12277-3.151z"/>
   <path d="m80.319 164.84 0.3683 2.4553h6.0565v-0.65476c-0.61383-0.45014-0.77752-0.7366-0.90029-1.2277-0.20461-0.69567-0.32738-1.4323-0.32738-2.128v-10.476c0-1.4732-0.24553-2.5781-0.7366-3.3556-1.2686-1.8006-3.8876-2.9055-7.2023-2.9055-3.5602 0-5.8928 0.7366-7.4888 2.3326-1.2686 1.2686-1.7187 2.4962-1.8415 4.6651h5.0744c0.16369-1.8824 1.4323-2.8236 3.7648-2.8236 1.9233 0 3.2329 1.064 3.1101 2.4144-0.04092 0.53199-0.32738 0.98214-0.90029 1.3095-0.65476 0.32737-1.1458 0.40922-3.4375 0.73659-3.1101 0.45015-4.9516 0.90029-5.9746 1.6778-1.4732 0.98214-2.3326 2.9055-2.3326 5.0744 0 3.7648 2.4553 6.0156 6.4248 6.0156 2.7418 0 5.0744-1.1867 6.3429-3.1101zm-0.20461-6.9977v1.4732c0 1.1458-0.16369 2.087-0.53199 2.7009-0.61383 1.1049-2.1689 1.9234-3.683 1.9234-1.9233 0-2.8646-0.81845-2.8646-2.4553 0-1.596 0.81844-2.2098 3.6012-2.8236 0.81844-0.16369 1.6369-0.3683 3.4784-0.81844z"/>
   <path d="m87.825 140v27.295h5.279v-27.295z"/>
   <path d="m113.6 161.44h-5.4427c-0.61383 1.555-1.8006 2.3326-3.6421 2.3326-2.5372 0-4.0513-1.6369-4.5014-4.9516h13.873v-1.3095c0.12277-7.1614-3.3556-11.09-9.5349-11.09-2.7418 0-4.9516 0.85937-6.7112 2.5781-2.128 2.087-3.0692 4.6651-3.0692 8.5937 0 3.4375 0.98213 6.343 2.8236 8.0208 1.7597 1.596 4.4196 2.5372 7.366 2.5372 4.5833 0 7.5297-2.2507 8.8392-6.7112zm-5.1971-6.2611h-8.2663c0.45015-2.7418 1.8415-4.215 4.1331-4.215 2.2507 0 3.7648 1.4732 4.1332 4.215z"/>
   <path d="m115.32 140v27.295h5.279v-27.295z"/>
   <path d="m122.51 147v20.297h5.279v-11.54c0-2.8236 1.7596-4.7879 4.3378-4.7879 2.2916 0 3.3556 1.3914 3.3556 4.6651v11.663h5.4017v-13.136c0-2.4144-0.20461-3.3556-0.90029-4.6242-1.1458-2.0052-3.3147-3.1101-6.0565-3.1101-2.9464 0-4.7879 1.0231-6.2202 3.4375l-0.0818-2.8646z"/>
   <path d="m142.65 147v20.297h5.4017v-20.297zm3.1919-9.2075-3.6012 6.3839h3.683l5.6064-6.3839z"/>
  </g>
  <g stroke-width=".26458" aria-label="Polis">
   <path d="m202.65 140v27.295h5.4836v-9.6576h6.5066c5.4017 0 9.0438-3.6421 9.0438-9.0029 0-2.9873-1.1458-5.77-2.9873-7.1205-1.3095-0.94122-3.4784-1.5141-5.811-1.5141zm10.803 12.972h-5.238v-8.3072h5.3199c2.9055 0 4.3787 1.3504 4.3787 4.0104 0 2.7827-1.5141 4.2968-4.4605 4.2968z"/>
   <path d="m233.34 146.26c-6.5476 0-10.476 4.0922-10.476 10.967 0 6.7522 3.9285 10.926 10.476 10.926 6.5476 0 10.476-4.1741 10.476-10.926 0-6.8749-3.9285-10.967-10.476-10.967zm0.0409 4.5424c3.1101 0 4.7879 2.2507 4.7879 6.4657 0 4.215-1.6778 6.4657-4.7879 6.4657-3.2329 0-4.8288-2.2098-4.8288-6.6703 0-3.9694 1.7187-6.2611 4.8288-6.2611z"/>
   <path d="m245.25 140v27.295h5.279v-27.295z"/>
   <path d="m252.45 147v20.297h5.279v-20.297zm0-6.9977v4.5424h5.279v-4.5424z"/>
   <path d="m271.63 153.26h5.3199c-0.20461-2.087-0.53199-3.0692-1.2277-4.0513-1.3095-1.8415-4.0922-2.8646-7.4888-2.8646-2.8236 0-5.5654 0.90029-7.0386 2.3735-1.1049 1.1049-1.7187 2.7009-1.7187 4.4605 0 3.2738 1.6369 4.6242 7.2842 5.9337l0.65476 0.12277 0.73659 0.16369 0.65476 0.12276c0.65476 0.16369 1.3914 0.3683 1.8415 0.65476 0.85937 0.45014 1.3095 1.023 1.3095 1.6778 0 1.2686-1.3914 2.128-3.3556 2.128-1.4732 0-2.9055-0.45014-3.5193-1.1049-0.49107-0.49106-0.69568-1.064-0.90029-2.0461h-5.4017c0.0409 1.9234 0.32738 2.8236 1.1049 3.9285 1.555 2.1689 4.4605 3.2738 8.7574 3.2738 5.5245 0 8.7983-2.5781 8.7983-6.834 0-3.3147-1.7596-4.706-7.4478-6.0156l-0.65475-0.16369-0.7366-0.12277-0.65476-0.16368c-0.65475-0.16369-1.4323-0.3683-1.8824-0.65476-0.85936-0.40922-1.2686-0.98213-1.2686-1.6778 0-1.1049 1.3504-1.9643 3.1101-1.9643 2.3326 0 3.5602 0.94122 3.7239 2.8236z"/>
  </g>
  <g transform="matrix(.26458 0 0 .26458 134.02 249.81)">
   <path d="m157.18-416.36 53.503 92.358h-83.473l-12.036 20.353h132.05l-90.093-154.46-90.001 154.46h24.272z"/>
  </g>
 </g>
</svg>
