<svg width="275.85mm" height="46.588mm" version="1.1" viewBox="0 0 277.74 46.588" xmlns="http://www.w3.org/2000/svg">
 <g transform="translate(-33.935 -125.74)">
  <g transform="matrix(.26458 0 0 .26458 147.34 249.81)">
   <path d="m157.18-416.36 53.503 92.358h-83.473l-12.036 20.353h132.05l-90.093-154.46-90.001 154.46h24.272z"/>
  </g>
  <g stroke-width=".38955" aria-label="パラレル">
   <path d="m65.487 140.04q1.3543 0 2.3586 0.98909 1.0043 0.97387 1.0043 2.3129 0 1.3238-1.0043 2.3282t-2.3586 1.0043q-1.3239 0-2.3282-1.0043-1.0043-1.0043-1.0043-2.3282 0-1.3391 0.98909-2.3129 1.0043-0.98909 2.3434-0.98909zm0 4.5498q0.59345 0 0.92822-0.33477 0.34998-0.33477 0.34998-0.913 0-0.57824-0.34998-0.92822-0.33477-0.34999-0.92822-0.34999-0.57823 0-0.92822 0.34999-0.34998 0.34998-0.34998 0.92822 0 0.57823 0.33477 0.913 0.34998 0.33477 0.94344 0.33477zm-13.589-2.2216q-0.913 7.0149-3.1803 13.832-2.2521 6.8171-5.265 10.926l-2.5564-1.7499q3.302-4.5802 5.4628-10.941 2.176-6.3758 2.7086-12.995zm15.156 23.099-3.0281 0.77605q-0.4565-4.9302-2.6173-11.397-2.1608-6.4823-5.1737-12.036l2.6173-1.2478q6.4214 13.482 8.2018 23.905z"/>
   <path d="m96.149 145.61h-20.497v-2.7999h20.497zm1.6586 5.7976q0 0.56301-1.3847 2.876-1.3695 2.2977-2.6173 3.8346t-2.7542 2.9368q-1.5065 1.3847-3.2564 2.6173-1.7499 1.2326-3.7585 2.2977-2.0086 1.05-4.2455 1.9325l-1.7043-2.6781q12.189-4.0324 16.541-13.619h-20.786v-2.8151h23.966z"/>
   <path d="m129.6 156.87q-3.9107 4.6563-9.9213 7.4105-6.0106 2.739-11.58 2.739v-25.458h2.7999v22.475q4.2759-0.3652 8.7192-2.8455 4.4433-2.4803 7.9583-6.4519z"/>
   <path d="m162.1 158.3q-5.5541 7.8518-12.63 9.1604v-25.899h2.8151v22.125q1.7347-0.57823 4.0172-2.9216 2.2825-2.3586 3.652-4.8085zm-17.21-6.6954q0 8.5974-7.6844 15.917l-2.3434-2.1151q3.2412-2.6325 5.2346-6.0106 1.9934-3.3781 1.9934-9.4496v-8.3844h2.7999z"/>
  </g>
  <g stroke-width=".37995" aria-label="ポリス">
   <path d="m238.35 139.79q1.3358 0 2.3153 0.96473 0.97957 0.94988 0.97957 2.256 0 1.3061-0.99441 2.2857-0.97957 0.96472-2.3005 0.96472-1.2912 0-2.2708-0.97957t-0.97957-2.2708q0-1.3061 0.96473-2.256 0.97957-0.96473 2.2857-0.96473zm0 4.4378q0.57883 0 0.90536-0.32653 0.34136-0.32652 0.34136-0.89051 0-0.564-0.34136-0.90536-0.32653-0.34137-0.90536-0.34137-0.564 0-0.90536 0.34137-0.32652 0.34136-0.32652 0.90536 0 0.57883 0.32652 0.90535 0.34136 0.31169 0.90536 0.31169zm2.9832 6.0852h-10.642v14.13q0 1.0835-0.89052 1.7959-0.89052 0.72725-2.3302 0.72725-0.69757 0-2.3302-0.0594l-0.83115-3.0129q2.0482 0.282 2.9536 0.282 0.69757 0 0.69757-0.66789v-13.194h-11.117v-2.7309h11.117v-5.8477h2.7309v5.8477h10.642zm-16.222 3.2207q-2.9684 6.0852-6.5156 9.7808l-2.4934-1.8107q4.0222-3.3098 6.4117-9.3059zm16.623 8.356-2.6419 1.4842q-2.6716-5.4767-6.4562-9.573l2.5973-1.5139q4.601 5.6399 6.5008 9.6027z"/>
   <path d="m268.39 154.14q0 4.2596-3.2207 7.7772-3.2059 3.5175-8.6974 5.2986l-1.5436-2.5973q5.4618-1.6623 8.0889-4.4378 2.6419-2.7903 2.6419-7.2577v-10.671h2.7309zm-14.797 3.3098h-2.7458v-14.649h2.7458z"/>
   <path d="m303.71 164.93-2.3747 1.7365q-4.3932-5.9961-10.271-9.6027-4.7643 5.9665-11.681 10.107l-2.1224-2.1818q5.7438-3.0129 10.107-7.8811 4.3784-4.8682 6.8273-10.998h-15.228v-2.6122l17.81-0.0297 0.8163 0.84599q-1.6623 5.8329-4.9275 10.553 6.3375 4.037 11.042 10.063z"/>
  </g>
 </g>
</svg>
