<svg xmlns="http://www.w3.org/2000/svg" width="296" height="80" viewBox="0 0 296 80" fill="none">
  <path d="M75.634 75.2309H79.1313V61.1511H75.634V56.8363H86.58V59.8339C87.2764 58.6833 88.1545 57.8203 89.2143 57.245C90.3043 56.6697 91.5761 56.3821 93.0295 56.3821C94.7857 56.3821 96.2996 56.7909 97.5714 57.6084C98.8431 58.3957 99.8272 59.5463 100.524 61.0602C101.22 62.5742 101.568 64.3455 101.568 66.3742V75.2309H104.566V79.5457H90.8494V75.2309H93.6653V66.9647C93.6653 65.0268 93.3928 63.5734 92.8478 62.6045C92.3028 61.6355 91.5458 61.1511 90.5769 61.1511C89.8502 61.1511 89.2143 61.4236 88.6693 61.9686C88.1242 62.4834 87.7003 63.2252 87.3975 64.1941C87.125 65.1631 86.9888 66.2834 86.9888 67.5551V75.2309H89.7139V79.5457H75.634V75.2309Z" fill="white" />
  <path d="M119.11 79.9999C116.567 79.9999 114.311 79.5003 112.343 78.5011C110.405 77.5019 108.891 76.109 107.801 74.3226C106.711 72.5361 106.166 70.4922 106.166 68.191C106.166 65.8898 106.711 63.8459 107.801 62.0594C108.891 60.273 110.42 58.8801 112.388 57.8809C114.356 56.8817 116.597 56.3821 119.11 56.3821C121.623 56.3821 123.864 56.8817 125.832 57.8809C127.8 58.8801 129.329 60.273 130.42 62.0594C131.51 63.8459 132.055 65.8898 132.055 68.191C132.055 70.4619 131.494 72.4907 130.374 74.2771C129.284 76.0636 127.755 77.4716 125.787 78.5011C123.819 79.5003 121.593 79.9999 119.11 79.9999ZM119.11 75.776C120.049 75.776 120.851 75.5035 121.517 74.9584C122.184 74.3831 122.683 73.5353 123.016 72.415C123.349 71.2946 123.516 69.8866 123.516 68.191C123.516 66.4954 123.349 65.0874 123.016 63.967C122.683 62.8164 122.184 61.9686 121.517 61.4236C120.851 60.8483 120.049 60.5606 119.11 60.5606C118.141 60.5606 117.324 60.8483 116.658 61.4236C116.022 61.9686 115.522 62.8164 115.159 63.967C114.826 65.0874 114.659 66.4954 114.659 68.191C114.659 69.8866 114.826 71.2946 115.159 72.415C115.522 73.5353 116.022 74.3831 116.658 74.9584C117.324 75.5035 118.141 75.776 119.11 75.776Z" fill="white" />
  <path d="M135.098 61.1511H132.463V56.8363H144.545V61.1511H143.273L146.407 74.0046H146.543L148.905 65.2842L147.542 61.1511H145.68V56.8363H158.488V61.1511H156.399L159.942 74.05H160.124L163.257 61.1511H160.896V56.8363H170.524V61.1511H167.845L162.712 79.5457H154.355L151.449 68.5998L148.451 79.5457H140.185L135.098 61.1511Z" fill="white" />
  <path d="M2.58402 15.754H0V11.4159H11.8508V15.754H10.6034L13.6775 28.6768H13.8111L16.1278 19.9094L14.7913 15.754H12.9646V11.4159H25.5283V15.754H23.4789L26.954 28.7224H27.1322L30.2063 15.754H27.8896V11.4159H37.3346V15.754H34.7061L29.6717 34.2477H21.4741L18.6228 23.2428L15.6823 34.2477H7.57385L2.58402 15.754Z" fill="white" />
  <path d="M56.1269 33.6998C55.4438 33.9433 54.5527 34.1564 53.4538 34.3391C52.83 34.4304 52.1915 34.5065 51.538 34.5674C50.9143 34.6587 50.2757 34.7044 49.6223 34.7044C47.3353 34.7044 45.2859 34.2173 43.4741 33.2431C41.6623 32.269 40.2366 30.8991 39.1971 29.1334C38.1873 27.3678 37.6823 25.3281 37.6823 23.0145C37.6823 20.64 38.1873 18.5394 39.1971 16.7129C40.2366 14.8864 41.6772 13.4708 43.5187 12.4662C45.3601 11.4616 47.4689 10.9593 49.845 10.9593C52.2211 10.9593 54.3002 11.4616 56.0823 12.4662C57.8941 13.4403 59.2901 14.8255 60.2702 16.6216C61.2504 18.3872 61.7553 20.4421 61.785 22.7862C61.785 22.9993 61.7701 23.2276 61.7404 23.4711C61.7404 23.6842 61.7256 23.9125 61.6959 24.1561H45.6572C45.776 25.6478 46.0136 26.9111 46.37 27.9462C46.7561 28.9812 47.2462 29.7575 47.8402 30.275C48.4342 30.7925 49.1174 31.0513 49.8896 31.0513C50.5727 31.0513 51.3301 30.7925 52.1617 30.275C53.0231 29.7575 53.7656 29.1486 54.3894 28.4485C55.0428 27.7483 55.4437 27.1242 55.5923 26.5763V26.3023H60.092V35.7546H56.1269V33.6998ZM53.8102 21.4163C53.6617 19.8637 53.4092 18.6003 53.0528 17.6262C52.6964 16.6216 52.236 15.8757 51.6717 15.3887C51.1074 14.9016 50.4539 14.658 49.7114 14.658C48.9689 14.658 48.3154 14.9168 47.7511 15.4343C47.1868 15.9214 46.7264 16.6672 46.37 17.6718C46.0433 18.6764 45.8205 19.9246 45.7017 21.4163H53.8102Z" fill="white" />
  <path d="M79.7099 34.7044C78.2842 34.7044 77.0368 34.4304 75.9675 33.8824C74.8983 33.304 73.9924 32.4516 73.2498 31.3253V34.2477H65.9433V6.62123H62.3791V2.28318H73.6063V14.0187C74.3191 13.0141 75.1804 12.2531 76.1903 11.7356C77.2298 11.218 78.403 10.9593 79.7099 10.9593C81.6405 10.9593 83.378 11.4616 84.9225 12.4662C86.4669 13.4403 87.6699 14.8255 88.5312 16.6216C89.3925 18.4177 89.8232 20.4878 89.8232 22.8318C89.8232 25.1759 89.3925 27.246 88.5312 29.0421C87.6699 30.8382 86.4669 32.2385 84.9225 33.2431C83.4077 34.2173 81.6702 34.7044 79.7099 34.7044ZM77.5714 30.0467C78.3733 30.0467 79.0564 29.8032 79.6208 29.3161C80.2148 28.7985 80.6752 28.007 81.0019 26.9416C81.3286 25.8761 81.492 24.5062 81.492 22.8318C81.492 21.1575 81.3286 19.7876 81.0019 18.7221C80.6752 17.6262 80.2148 16.8347 79.6208 16.3476C79.0564 15.8605 78.3733 15.617 77.5714 15.617C76.7398 15.617 75.9824 15.9366 75.2992 16.5759C74.6458 17.1848 74.126 18.0371 73.7399 19.1331C73.3835 20.229 73.2053 21.4619 73.2053 22.8318C73.2053 24.1713 73.3835 25.389 73.7399 26.4849C74.126 27.5809 74.6458 28.4485 75.2992 29.0878C75.9824 29.727 76.7398 30.0467 77.5714 30.0467Z" fill="white" />
  <path d="M93.7215 21.6446H97.9094V21.8729C97.9094 23.0297 98.2806 24.2931 99.0232 25.663C99.7954 27.0329 100.776 28.1897 101.964 29.1334C103.181 30.0467 104.399 30.5033 105.617 30.5033C106.508 30.5033 107.25 30.2598 107.845 29.7727C108.439 29.2552 108.869 28.5702 109.137 27.7178C109.434 26.835 109.582 25.8304 109.582 24.704C109.582 23.4863 109.419 22.4665 109.092 21.6446C108.765 20.8226 108.32 20.2138 107.755 19.818C107.221 19.3918 106.612 19.1787 105.929 19.1787C105.424 19.1787 104.904 19.2853 104.369 19.4984C103.865 19.7115 103.389 20.0159 102.944 20.4117L102.498 20.8226L100.36 17.9002L109.448 10.0003H101.652C100.88 10.0003 100.286 10.046 99.8697 10.1373C99.4836 10.2287 99.1866 10.3961 98.9786 10.6396C98.8004 10.8832 98.7113 11.2637 98.7113 11.7812V13.3338H94.4789V0H98.7559V2.28318H118.225V6.57557L107.533 16.4389C107.919 16.2867 108.349 16.1802 108.825 16.1193C109.3 16.0279 109.745 15.9823 110.161 15.9823C111.765 15.9823 113.206 16.3476 114.483 17.0782C115.79 17.7784 116.814 18.783 117.557 20.092C118.299 21.3706 118.671 22.8471 118.671 24.5214C118.671 26.4697 118.181 28.2201 117.2 29.7727C116.22 31.3253 114.809 32.5582 112.968 33.4715C111.127 34.3543 108.943 34.7957 106.419 34.7957C105.468 34.7957 104.518 34.6892 103.568 34.4761C102.617 34.263 101.771 33.9738 101.028 33.6085C100.553 33.4562 100.048 33.304 99.5133 33.1518C99.0084 32.9692 98.5034 32.8169 97.9985 32.6952V35.572H93.7215V21.6446Z" fill="white" />
  <path d="M121.115 39.0424H124.545V15.754H121.115V11.4159H131.852V14.2927C132.594 13.1968 133.5 12.3749 134.569 11.8269C135.668 11.2485 136.931 10.9593 138.356 10.9593C140.287 10.9593 142.025 11.4464 143.569 12.4205C145.113 13.3947 146.316 14.7798 147.178 16.5759C148.039 18.372 148.47 20.4573 148.47 22.8318C148.47 25.1759 148.024 27.246 147.133 29.0421C146.272 30.8382 145.069 32.2385 143.524 33.2431C142.01 34.2173 140.287 34.7044 138.356 34.7044C137.02 34.7044 135.847 34.4456 134.837 33.9281C133.827 33.4106 132.966 32.6343 132.253 31.5993V39.2707H137.822V43.3805H121.115V39.0424ZM136.218 30.0467C136.99 30.0467 137.673 29.8032 138.267 29.3161C138.861 28.7985 139.307 28.007 139.604 26.9416C139.931 25.8761 140.094 24.5062 140.094 22.8318C140.094 21.1575 139.931 19.7876 139.604 18.7221C139.307 17.6262 138.861 16.8347 138.267 16.3476C137.673 15.8605 136.99 15.617 136.218 15.617C135.357 15.617 134.584 15.9366 133.901 16.5759C133.248 17.1848 132.743 18.0371 132.386 19.1331C132.03 20.229 131.852 21.4619 131.852 22.8318C131.852 24.1713 132.03 25.389 132.386 26.4849C132.743 27.5809 133.248 28.4485 133.901 29.0878C134.584 29.727 135.357 30.0467 136.218 30.0467Z" fill="white" />
  <path d="M150.265 29.9097H153.696V15.754H150.265V11.4159H161.002V14.521C161.448 13.4251 162.086 12.5727 162.918 11.9639C163.749 11.355 164.7 11.0506 165.769 11.0506C166.215 11.0506 166.734 11.1419 167.328 11.3246C167.507 11.3855 167.685 11.4464 167.863 11.5072C168.041 11.5681 168.205 11.629 168.353 11.6899V9.54371H172.318V21.6446H168.487V21.0053C168.487 20.2747 168.249 19.5288 167.774 18.7678C167.328 17.9763 166.764 17.3218 166.081 16.8042C165.428 16.2867 164.834 16.0279 164.299 16.0279C163.735 16.0279 163.23 16.2715 162.784 16.7586C162.368 17.2152 162.027 17.8849 161.759 18.7678C161.522 19.6202 161.403 20.6552 161.403 21.8729V29.9097H166.838V34.2477H150.265V29.9097Z" fill="white" />
  <path d="M175.195 29.9097H178.626V15.754H175.195V11.4159H186.333V29.9097H189.764V34.2477H175.195V29.9097ZM176.888 0.228318H187.135L182.234 9.36105H181.789L176.888 0.228318Z" fill="white" />
  <path d="M193.675 15.754H190.912V11.4159H205.214V15.754H202.184L206.595 27.8548H206.728L211.184 15.754H207.53V11.4159H218.624V15.754H215.862L208.644 34.2477H200.981L193.675 15.754Z" fill="white" />
  <path d="M225.572 34.7044C223.256 34.7044 221.459 34.1412 220.181 33.0148C218.904 31.858 218.266 30.3207 218.266 28.4028C218.266 26.3632 219.053 24.7801 220.627 23.6538C222.201 22.5274 224.533 21.8425 227.622 21.5989C229.077 21.4771 230.221 21.2793 231.052 21.0053C231.913 20.7313 232.537 20.3508 232.923 19.8637C233.339 19.3462 233.547 18.6764 233.547 17.8545C233.547 16.7281 233.339 15.9214 232.923 15.4343C232.508 14.9472 231.884 14.7037 231.052 14.7037C230.221 14.7037 229.315 14.9929 228.335 15.5713C227.384 16.1497 226.567 16.8651 225.884 17.7175C225.201 18.5699 224.815 19.3766 224.726 20.1377V20.503H220.761V9.90901H224.681V11.8726C225.78 11.7508 226.805 11.5986 227.755 11.4159C228.32 11.2637 228.914 11.1572 229.537 11.0963C230.161 11.0049 230.815 10.9593 231.498 10.9593C234.527 10.9593 236.888 11.7812 238.581 13.4251C240.274 15.069 241.121 17.3674 241.121 20.3203V29.9097H243.972V34.2477H233.77V30.7316C232.908 32.0711 231.78 33.0757 230.384 33.7454C229.018 34.3847 227.414 34.7044 225.572 34.7044ZM228.825 30.412C229.597 30.412 230.354 30.1532 231.097 29.6357C231.869 29.0878 232.493 28.3571 232.968 27.4439C233.473 26.5001 233.725 25.4347 233.725 24.2474V21.8272C233.339 22.2534 232.849 22.634 232.255 22.9688C231.661 23.2732 230.933 23.5016 230.072 23.6538C228.854 23.8669 227.934 24.2931 227.31 24.9324C226.686 25.5412 226.374 26.3784 226.374 27.4439C226.374 28.3267 226.597 29.0421 227.042 29.5901C227.488 30.138 228.082 30.412 228.825 30.412Z" fill="white" />
  <path d="M262.661 33.7454C262.007 33.989 261.101 34.1869 259.943 34.3391C259.319 34.4608 258.696 34.5522 258.072 34.6131C257.448 34.6739 256.824 34.7044 256.201 34.7044C253.884 34.7044 251.805 34.2021 249.963 33.1975C248.122 32.1624 246.681 30.7469 245.642 28.9508C244.632 27.1242 244.127 25.0846 244.127 22.8318C244.127 20.5486 244.632 18.509 245.642 16.7129C246.681 14.9168 248.122 13.5164 249.963 12.5118C251.805 11.4768 253.884 10.9593 256.201 10.9593C257.3 10.9593 258.428 11.0658 259.587 11.2789C260.656 11.4616 261.532 11.6595 262.215 11.8726V9.90901H266.18L266.136 21.1423H261.992V20.777C261.903 19.9855 261.547 19.1483 260.923 18.2655C260.3 17.3826 259.572 16.6368 258.74 16.0279C257.909 15.4191 257.151 15.1147 256.468 15.1147C255.607 15.1147 254.864 15.4039 254.24 15.9823C253.617 16.5607 253.127 17.4283 252.77 18.5851C252.444 19.7115 252.28 21.1271 252.28 22.8318C252.28 24.5062 252.444 25.9217 252.77 27.0786C253.127 28.2049 253.617 29.0573 254.24 29.6357C254.864 30.2141 255.607 30.5033 256.468 30.5033C257.211 30.5033 258.027 30.2141 258.918 29.6357C259.809 29.0269 260.582 28.281 261.235 27.3982C261.889 26.5154 262.29 25.6782 262.438 24.8867V24.5214H266.581V35.7546H262.661V33.7454Z" fill="white" />
  <path d="M270.501 31.2796H274.422V33.2431C274.422 34.0955 274.719 35.0088 275.313 35.983C275.907 36.9876 276.62 37.8247 277.451 38.4945C278.313 39.1946 279.085 39.5447 279.768 39.5447C280.124 39.5447 280.422 39.423 280.659 39.1794C280.897 38.9359 281.016 38.6162 281.016 38.2205V38.1748C281.016 37.9008 280.912 37.5051 280.704 36.9876C280.525 36.5005 280.08 35.4959 279.367 33.9738C279.189 33.578 278.981 33.1518 278.743 32.6952C278.535 32.2385 278.313 31.7515 278.075 31.2339L270.635 15.754H267.962V11.4159H282.085V15.754H279.456L283.154 24.6584C283.243 24.9019 283.347 25.1759 283.466 25.4803C283.585 25.7543 283.704 26.0435 283.822 26.3479C284.09 27.0177 284.283 27.5504 284.402 27.9462C284.461 27.6722 284.52 27.4286 284.58 27.2155C284.639 26.972 284.713 26.7132 284.802 26.4393L288.322 15.754H284.624V11.4159H295.673V15.754H292.644L287.565 29.2247C287.535 29.2856 287.52 29.3465 287.52 29.4074C287.52 29.4378 287.505 29.4835 287.476 29.5444C287.208 30.3055 287.015 31.0056 286.896 31.6449C286.807 32.2842 286.763 32.9844 286.763 33.7454V34.4761C286.763 36.4548 286.481 38.1444 285.916 39.5447C285.382 40.9451 284.609 42.0106 283.6 42.7412C282.59 43.4718 281.417 43.8371 280.08 43.8371C279.427 43.8371 278.758 43.7762 278.075 43.6545C277.392 43.5631 276.753 43.4261 276.159 43.2435C275.506 43.0608 274.956 42.8325 274.511 42.5585V44.6591H270.501V31.2796Z" fill="white" />
  <path d="M3.33179 59.0273C3.33179 57.9228 4.22722 57.0273 5.33179 57.0273H61.1986C62.3032 57.0273 63.1986 57.9228 63.1986 59.0273V77.8592C63.1986 78.9637 62.3032 79.8592 61.1986 79.8592H5.33179C4.22722 79.8592 3.33179 78.9637 3.33179 77.8592V59.0273Z" fill="white" />
</svg>